<svg xmlns="http://www.w3.org/2000/svg" viewBox="0 0 180 64"><svg width="180" height="64" fill="none" id="svg1942861673_5323"><path fill-rule="evenodd" clip-rule="evenodd" d="M4 14h35.64v36H4V14Zm27.79 9.438c-.99.571-1.677.917-2.348 1.256a37.19 37.19 0 0 0-2.912 1.599c1.414-1.507 1.885-2.141 2.748-3.49-2.198.08-5.416.397-7.693.873 1.962-1.11 5.966-2.3 8.007-2.537-.47-.635-4.396-2.696-5.416-3.172 3.061.238 6.908 1.427 8.713 2.537.493-.166 1.023-.216 1.752-.285.316-.03.67-.063 1.074-.111-.049.1-.09.192-.13.283-.217.487-.393.884-1.518 1.62.392.951-.471 6.423-1.256 7.85 0-2.3-.236-5.154-1.02-6.423ZM12.556 40.961c.942.952 1.884 1.507 3.14 1.983-1.335-.08-2.355-.238-3.376-.635-.157.873-.078 1.507.157 2.3-.942-.952-1.57-1.824-2.12-3.013-.93-.434-1.665-.868-2.502-1.362l-.245-.145c.52-.263 1.04-.417 1.65-.597l.391-.117c-.235-1.427-.235-2.696 0-4.52.314 1.666.628 2.934 1.413 4.282.661-.182 1.276-.27 1.986-.374.217-.031.444-.064.683-.101a9.098 9.098 0 0 0-1.177 2.3Zm6.436-16.096c-.392.555-.863 1.507-.942 1.903 3.219.476 5.888 2.141 5.888 2.141-2.826-.476-4.318-.476-5.417-.317-1.02.08-1.256.238-1.256.238-.785 1.665-1.256 4.6-1.256 4.6-.55-1.27-1.256-3.807-1.256-3.807-1.413.793-4.71 3.885-4.71 3.885 1.806-3.647 3.69-5.312 3.69-5.312-.628-.635-2.277-.952-3.533-1.031.628-.238 2.277-.555 3.533-.635h1.962c1.02-.793 2.67-1.585 3.297-1.665Zm1.726 17.919c.628-.714 1.178-1.348 1.728-2.141v1.427c1.02-.476 1.805-.951 2.747-1.586-.785.873-1.57 1.586-2.59 2.38.058.356.117.58.176.802l.06.228c-.393.08-.943.08-1.492.08-1.1.713-2.591 1.189-3.69 1.427.706-.476 1.256-.873 1.962-1.507a8.297 8.297 0 0 1-1.962-.714c1.099 0 1.962-.079 3.061-.396Z" fill="currentColor"></path><path d="M52.989 27.168c2.433 0 3.297.475 3.297 1.823 0 .397-.079.714-.315.952-.47.555-1.334.872-2.511.793h-.079l-.706 1.744h.706c1.334 0 2.512.397 3.062 1.11.235.318.392.714.392 1.11 0 1.349-1.178 2.062-3.532 2.062H51.89c-.079-1.824-.079-4.361-.079-5.075 0-.872.078-2.775.078-4.44.236-.08.707-.08 1.1-.08Zm-4.397-1.27c.079 1.27.157 4.6.157 5.79 0 1.11 0 4.836-.157 6.422v.159h5.653c2.826 0 5.809-.872 5.809-3.41 0-1.586-1.178-2.775-3.297-3.41 1.57-.396 2.669-1.506 2.669-2.775 0-2.061-2.355-2.854-4.553-2.934h-6.36l.08.159Zm24.72-.158h-2.826l.078 3.172c.079 1.586.079 3.172.236 4.678-.157-.475-.314-.713-1.178-1.982 0-.08-2.904-4.599-3.925-5.868h-3.219v.159c.079 1.268.157 4.599.157 5.788 0 1.11 0 4.837-.157 6.423v.159h2.905v-.159c-.157-3.013-.157-6.105-.157-9.119.079.397.236.635.707 1.348 0 .08 5.024 7.375 5.26 7.85v.08h2.354v-.159c-.157-1.586-.157-5.313-.157-6.423 0-1.19.079-4.52.157-5.788v-.08h-.235v-.079Zm7.618 1.507c1.648 0 2.747.317 3.296.951.236.318.393.714.393 1.11 0 1.824-2.041 2.22-3.69 2.22h-1.02v-4.202c.235 0 .628-.08 1.02-.08Zm-4.24-1.348c.079 1.268.157 4.599.157 5.788 0 1.11 0 4.837-.157 6.423v.159h3.454v-.159a88.718 88.718 0 0 1-.157-4.995h1.099c4.553 0 6.751-1.19 6.751-3.727 0-2.934-3.061-3.569-5.652-3.648H76.77v.159m21.824 1.348c1.648 0 2.747.317 3.297.951.235.318.392.714.392 1.11 0 1.824-2.041 2.22-3.69 2.22h-1.02v-4.202c.236 0 .628-.08 1.02-.08Zm-4.24-1.348c.079 1.268.157 4.599.157 5.788 0 1.11 0 4.837-.156 6.423v.159h3.453v-.159a88.718 88.718 0 0 1-.157-4.995h1.099c4.554 0 6.752-1.19 6.752-3.727 0-2.934-3.14-3.569-5.73-3.648h-5.418v.159Zm16.564 3.568c.235.635 1.02 2.22 1.805 4.203h-3.611a81.837 81.837 0 0 1 1.806-4.203Zm-.864-3.727c-.706 1.824-4.867 10.943-5.495 12.37l-.079.159h2.905v-.08c.236-.872.628-1.823 1.021-2.854h4.867c.549 1.348.942 2.379 1.099 2.855v.079h3.375l-5.495-12.529h.079-2.277Zm9.187.159c.079 1.268.157 4.599.157 5.788 0 1.11 0 4.837-.157 6.423v.159h3.455v-.159c-.158-1.586-.236-5.313-.236-6.423 0-.872 0-2.775.079-4.36.235 0 .628-.08.942-.08 1.57 0 2.747.317 3.297.951.235.318.392.714.392 1.11 0 1.428-1.334 2.142-2.59 2.22h-.707l-.235-.078.157.237c1.256 1.824 3.061 4.917 3.846 6.423v.08h3.69l-.079-.159c-.157-.238-2.59-3.806-3.611-5.313l-.078-.08c1.884-.554 2.826-1.664 2.826-3.25 0-2.855-3.062-3.569-5.731-3.648h-5.417v.159Zm16.955-.159h-3.297v.08c.078 1.268.157 4.599.157 5.788 0 1.11 0 4.837-.157 6.423v.159h3.454v-.159c-.157-1.586-.157-5.313-.157-6.423 0-1.19.078-4.52.157-5.788v-.08h-.157Zm7.615 1.428c2.433 0 3.297.475 3.297 1.823 0 .397-.079.714-.314.952-.471.555-1.335.872-2.512.793h-.079l-.628 1.744h.628c1.335 0 2.434.397 3.062 1.11.314.318.392.714.392 1.11 0 1.349-1.177 2.062-3.611 2.062h-1.413c-.078-1.824-.078-4.361-.078-5.075 0-.872 0-2.775.078-4.44.314-.08.785-.08 1.178-.08Zm-4.396-1.27c.078 1.27.157 4.6.157 5.79 0 1.11 0 4.836-.157 6.422v.159h5.73c2.826 0 5.809-.872 5.809-3.41 0-1.586-1.177-2.775-3.297-3.41 1.57-.396 2.669-1.506 2.669-2.775 0-2.061-2.355-2.854-4.553-2.934h-6.358v.159Zm18.529 3.49c.314.555 1.02 2.22 1.805 4.202h-3.532c.549-1.506 1.177-2.934 1.727-4.202Zm1.413-3.648h-2.277v.08c-.706 1.903-5.024 11.497-5.416 12.29l-.079.159h2.983v-.08c.236-.872.55-1.823.942-2.854h4.867c.55 1.348.942 2.379 1.099 2.855v.079h3.376l-5.495-12.529Zm6.595 3.249c0 2.22 2.198 3.092 4.082 3.885 1.491.635 3.062 1.27 3.062 2.3 0 .317-.079.555-.236.793-.392.396-1.099.634-2.277.555-1.177-.08-2.433-.396-3.925-1.11l-.549-.317v2.696l.392.079h.236c.706.159 2.119.476 3.454.476 3.611 0 5.809-1.427 5.809-3.886 0-2.3-2.198-3.172-4.239-3.964-1.492-.635-2.983-1.19-2.983-2.141 0-.318 0-1.11 1.884-1.11 1.413 0 2.748.554 3.533.872l.706.317v-2.776l-.706-.158c-.707-.159-1.885-.396-3.062-.396-3.14.158-5.181 1.665-5.181 3.885Z" fill="currentColor"></path></svg></svg>