<svg xmlns="http://www.w3.org/2000/svg" viewBox="0 0 180 64"><svg width="180" height="64" fill="none" id="svg-2068211397_1806"><path d="M64.555 45.772H49V48h15.555v-2.228Zm0-4.252H49v2.228h15.555v-2.227Zm-4.445-4.253h-6.667v2.227h6.667v-2.227Zm0-4.257h-6.667v2.229h6.667V33.01Zm0-4.249h-6.667v2.228h6.667v-2.228Zm0-4.256h-6.667v2.228h6.667v-2.228Zm4.445-4.249H49v2.228h15.555v-2.228Zm0-4.256H49v2.228h15.555V16Zm2.221 27.748h23.71a8.463 8.463 0 0 0 .894-2.228H66.776v2.228ZM88.629 33.01h-17.41v2.229h19.264a8.534 8.534 0 0 0-1.854-2.228ZM71.22 28.761v2.228h17.409a8.538 8.538 0 0 0 1.854-2.228H71.219Zm19.266-8.506h-23.71v2.228H91.38a8.46 8.46 0 0 0-.894-2.228ZM83.14 16H66.775v2.228h22.087A8.441 8.441 0 0 0 83.14 16Zm-5.254 8.505h-6.667v2.228h6.667v-2.228Zm6.262 2.228h7.178a8.526 8.526 0 0 0 .297-2.228h-7.475v2.228Zm-6.262 10.534h-6.667v2.227h6.667v-2.227Zm6.262 0v2.227h7.475c0-.752-.1-1.501-.297-2.227h-7.178ZM66.776 47.978 83.14 48a8.41 8.41 0 0 0 5.724-2.228H66.776v2.206Zm44.445.022.776-2.228h-1.545l.769 2.228Zm-1.483-4.252h2.963l.78-2.228h-4.523l.78 2.228Zm-1.489-4.253h5.942l.78-2.228h-7.502l.78 2.227Zm-1.491-4.256h8.921l.78-2.228h-10.48l.779 2.228Zm-8.873-8.506h12.006l-.773-2.228H97.885v2.228Zm16.14-4.25H129v-2.228h-14.202l-.773 2.228ZM116.269 16l-.773 2.228h13.5V16h-12.727Zm-11.716 29.772h-11.11V48h11.11v-2.228Zm0-4.252h-11.11v2.228h11.11V41.52Zm-.001-4.253h-6.667v2.227h6.667v-2.227Zm0-4.257h-6.667v2.229h6.667V33.01Zm20-8.505h-11.233l-.772 2.228h12.005v-2.228Zm-6.667 6.485h6.666v-2.23h-12.708l-.625 1.801-.625-1.8H97.885v2.227h6.667v-2.047l.717 2.047h11.899l.717-2.047v2.047Zm6.668 2.02h-6.666v2.229h6.666V33.01Zm0 4.257h-6.666v2.227h6.666v-2.227Zm4.445 4.253h-11.111v2.228h11.111V41.52Zm0 4.252h-11.111V48h11.111v-2.228Zm-20.581-23.289-.772-2.228H93.442v2.228h14.975Zm-1.475-4.255L106.169 16H93.442v2.228h13.5Z" fill="currentColor"></path></svg></svg>