<svg xmlns="http://www.w3.org/2000/svg" viewBox="0 0 180 64"><svg width="180" height="64" fill="none" id="svg-567810428_1270"><path d="M142.652 41h-3.246V14h3.246v27ZM77.035 22.568c-3.172 0-5.127 1.98-5.459 4.5h-.147V23h-3.246v18h3.246V29.804c0-3.024 1.66-4.428 4.426-4.428 3.172 0 4.61 1.548 4.61 4.572V41h3.246V29.552c0-4.32-2.508-6.984-6.676-6.984ZM57.192 40.532h-.11L51.437 23H48.08l5.976 18h2.987l-3.024 9h3.245l8.926-27h-3.356l-5.643 17.532Zm71.223 0h-.111L122.661 23h-3.357l5.975 18h2.988l-3.024 9h3.245l8.926-27h-3.356l-5.643 17.532ZM38.75 32l8.004-9h-3.947l-7.45 8.676h-.111V14H32v27h3.246v-8.82h3.098L44.577 41h3.763l-6.455-9H38.75Zm72.882-4.932h-.147V23h-3.246v18h3.246V29.768c0-3.024 1.77-4.14 4.795-4.14.774 0 1.475.072 2.028.216v-3.06c-.258-.108-.848-.18-1.549-.18-2.877-.036-4.795 1.836-5.127 4.464ZM100.789 14h3.245v27h-3.245v-4.068h-.148c-.295 2.52-2.287 4.5-6.012 4.5-4.574 0-7.82-3.528-7.82-9.432 0-5.868 3.246-9.432 7.82-9.432 3.725 0 5.717 1.98 6.012 4.5h.148V14Zm0 15.624c0-3.024-2.361-4.248-5.238-4.248-3.061 0-5.348 1.872-5.348 6.624s2.287 6.624 5.348 6.624c2.914 0 5.238-1.224 5.238-4.248v-4.752Zm43.301 9.468v.216h.59V41h.296v-1.692h.59v-.216h-1.476Zm3.246 0-.479 1.872-.443-1.872h-.516L145.824 41h.258l.074-1.872.479 1.872h.48l.516-1.872.074 1.872H148l-.074-1.908h-.59Z" fill="currentColor"></path></svg></svg>