<svg xmlns="http://www.w3.org/2000/svg" viewBox="0 0 160 64"><path d="M 6.06 28.019 C 1.553 28.019 1.205 31.013 1.205 31.932 C 1.205 34.728 3.24 35.208 5.211 35.671 L 6.545 35.977 C 7.9 36.303 8.733 36.547 8.733 37.442 C 8.733 38.456 7.885 38.971 6.213 38.971 C 3.945 38.971 3.672 37.622 3.659 37.042 L 3.656 36.962 L 1 36.962 L 1 37.044 C 1 38.322 1.525 41.29 6.405 41.29 C 7.237 41.29 11.39 41.093 11.39 37.129 C 11.39 34.833 9.793 34.126 8.067 33.704 L 5.04 32.959 C 4.601 32.86 3.783 32.677 3.783 31.741 C 3.783 30.701 4.862 30.333 5.87 30.333 C 8.106 30.333 8.275 31.64 8.337 32.132 L 8.348 32.203 L 10.998 32.203 L 10.996 32.12 C 10.969 30.228 9.661 28.019 6.06 28.019 Z M 23.843 28.019 C 19.325 28.019 17.721 31.609 17.721 34.683 C 17.721 39.25 20.633 41.29 23.518 41.29 C 25.668 41.29 26.666 40.261 27.337 39.491 L 27.582 40.974 L 29.47 40.974 L 29.47 34.079 L 24.1 34.079 L 24.1 36.353 L 26.977 36.353 C 26.403 38.785 24.448 38.913 24.058 38.913 C 22.446 38.913 20.525 38.185 20.525 34.719 C 20.525 31.485 22.326 30.334 24.007 30.334 C 25.836 30.334 26.661 31.891 26.661 32.295 L 26.661 32.377 L 29.431 32.377 L 29.423 32.29 C 29.307 30.813 27.994 28.019 23.843 28.019 Z M 13.233 28.329 L 13.233 40.974 L 15.997 40.974 L 15.997 28.329 Z M 31.873 28.329 L 31.873 40.974 L 34.452 40.974 L 34.452 32.229 L 39.489 40.974 L 42.164 40.974 L 42.164 28.329 L 39.586 28.329 L 39.586 36.867 L 34.686 28.329 Z M 47.999 28.329 L 43.502 40.974 L 46.412 40.974 L 47.279 38.404 L 51.753 38.404 L 52.552 40.974 L 55.549 40.974 L 51.107 28.329 Z M 57.015 28.329 L 57.015 40.974 L 65.97 40.974 L 65.97 38.557 L 59.782 38.557 L 59.782 28.329 Z M 71.988 28.329 L 71.988 40.974 L 74.755 40.974 L 74.755 28.329 Z M 77.253 28.329 L 77.253 40.974 L 82.728 40.974 C 86.6 40.974 87.977 37.557 87.977 34.356 C 87.977 32.942 87.605 28.329 82.832 28.329 Z M 89.706 28.329 L 89.706 36.67 C 89.745 38.049 90.061 39.025 90.694 39.744 C 91.902 41.091 93.723 41.29 94.707 41.29 C 98.1 41.29 99.899 39.641 99.899 36.518 L 99.899 28.329 L 97.076 28.329 L 97.076 36.616 C 97.076 38.182 96.307 38.913 94.655 38.913 C 93.316 38.913 92.518 38.007 92.518 36.493 L 92.518 28.329 Z M 102.18 28.329 L 102.18 40.974 L 104.766 40.974 L 104.766 32.243 L 109.803 40.974 L 112.477 40.974 L 112.477 28.329 L 109.889 28.329 L 109.889 36.855 L 104.996 28.329 Z M 118.313 28.329 L 113.81 40.974 L 116.725 40.974 L 117.594 38.404 L 122.06 38.404 L 122.863 40.974 L 125.865 40.974 L 121.415 28.329 Z M 79.956 30.643 L 82.382 30.643 C 83.579 30.643 85.171 31.048 85.171 34.544 C 85.171 35.513 84.976 38.66 82.41 38.66 L 79.956 38.66 Z M 49.518 31.402 L 50.976 36.088 L 48.028 36.088 Z M 119.823 31.402 L 121.288 36.088 L 118.329 36.088 Z M 140.467 28.333 L 137.479 36.525 C 136.296 34.7 135.601 32.46 135.601 29.998 C 135.601 23.689 140.201 18.82 145.59 18.82 C 150.979 18.82 155.58 23.689 155.58 29.998 C 155.58 35.441 152.152 39.823 147.74 40.916 L 152.325 28.333 L 148.341 28.333 L 142.752 43.656 C 143.681 43.886 144.634 44.001 145.59 44 C 152.79 44 158.392 37.601 158.392 29.998 C 158.392 22.4 152.79 16 145.59 16 C 138.393 16 132.79 22.4 132.79 29.998 C 132.79 35.854 136.12 41.002 140.945 43.055 C 142.739 38.149 144.53 33.241 146.318 28.333 Z" fill="currentColor" opacity="0.8"></path></svg>