<svg xmlns="http://www.w3.org/2000/svg" viewBox="0 0 180 64"><svg width="180" height="64" fill="none" id="svg1353517543_2379"><g clip-path="url(#svg1353517543_2379_a)" fill="currentColor"><path d="M66.322 28.59v-3.853c2.272 1.556 5.055 2.273 6.844 2.273 2.08 0 3.605-.43 3.605-1.795 0-.813-.654-1.245-1.91-1.58l-3.532-.909c-2.565-.67-4.959-1.556-4.959-4.644 0-3.757 3.797-5.075 7.425-5.075 1.743 0 3.532.263 5.321.934v3.398c-2.13-.813-4.161-1.054-5.901-1.054-2.105 0-3.265.455-3.265 1.46 0 .695.557 1.102 2.032 1.484l3.702.957c2.926.765 4.645 2.107 4.645 4.738 0 3.399-3.194 5.385-7.063 5.385-2.854-.024-4.983-.526-6.942-1.724l-.002.005Zm20.39 1.173h3.604V16.694h5.588v-3.302h-14.78v3.302h5.587v13.07Zm29.83 0h3.604V16.694h5.588v-3.302h-14.78v3.302h5.588v13.07Zm-22.425 0h3.943l1.548-3.9h7.644l1.597 3.9h3.894l-7.015-16.37h-4.596l-7.015 16.37Zm6.796-7.06 2.129-5.53h.773l2.129 5.53h-5.031Zm27.361 7.06h12.627v-3.302h-9.12V23.04h7.62v-3.302h-7.62v-3.04h8.804v-3.305h-12.311v16.371Zm-55.01 21.23c3.869 0 7.062-1.987 7.062-5.385 0-2.634-1.718-3.973-4.644-4.738l-3.702-.957c-1.476-.383-2.032-.79-2.032-1.484 0-1.006 1.162-1.46 3.264-1.46 1.743 0 3.775.24 5.901 1.053v-3.398c-1.788-.671-3.58-.933-5.32-.933-3.629 0-7.425 1.315-7.425 5.075 0 3.088 2.394 3.973 4.958 4.644l3.532.909c1.256.334 1.91.765 1.91 1.58 0 1.364-1.524 1.794-3.605 1.794-1.788 0-4.571-.719-6.844-2.273v3.853c1.96 1.198 4.088 1.7 6.942 1.725l.002-.005Zm13.447-.55h3.605v-13.07h5.588v-3.302h-14.78v3.302h5.587v13.07Zm64.097 0h3.604v-13.07H160v-3.302h-14.78v3.302h5.588v13.07Zm-35.555 0h12.627V47.14h-9.119v-3.422h7.62v-3.303h-7.62v-3.04h8.803v-3.302h-12.311v16.371-.002Zm15.286 0h12.627V47.14h-9.119v-3.422h7.619v-3.303h-7.619v-3.04h8.803v-3.302h-12.311v16.371-.002Zm-32.098 0h3.556v-5.84h2.735l4.426 5.84h4.28l-4.694-6.27c2.395-.672 3.654-2.346 3.654-4.811 0-3.398-2.297-5.289-6.483-5.289h-7.474v16.371-.002Zm3.556-9.12v-3.95h4.353c1.476 0 2.394.765 2.394 1.987 0 1.221-.894 1.962-2.394 1.962h-4.353Zm-63.758-23.9c5.998-2.059 12.335-4.308 20.028-4.308v5.265c-6.726 0-12.29 1.962-18.288 4.021C34.03 24.46 27.693 26.71 20 26.71v-5.265c6.725 0 12.289-1.963 18.239-4.021ZM20 29.343h38.267v5.312H20v-5.313Zm0 16.274c6.725 0 12.289-1.962 18.239-4.021 5.998-2.059 12.335-4.307 20.028-4.307v5.264c-6.726 0-12.29 1.963-18.288 4.022-5.95 2.058-12.286 4.307-19.979 4.307v-5.265Z"></path></g><defs><clipPath id="svg1353517543_2379_a"><path fill="currentColor" transform="translate(20 13)" d="M0 0h140v38H0z"></path></clipPath></defs></svg></svg>