<svg xmlns="http://www.w3.org/2000/svg" viewBox="0 -25 206.999 90"><g><path d="M 69.404 3.3 L 69.404 28.478 C 69.404 34.026 64.539 38.243 58.119 38.243 C 51.699 38.243 46.838 34.026 46.838 28.478 L 46.838 9.217 C 46.831 7.653 47.446 6.151 48.548 5.041 C 49.649 3.931 51.147 3.305 52.71 3.3 L 53.124 3.3 L 53.124 28.433 C 53.124 31.414 55.776 33.244 58.348 33.244 C 60.825 33.244 63.487 31.549 63.487 28.433 L 63.487 8.893 C 63.502 5.81 65.997 3.315 69.08 3.3 Z M 81.781 12.198 C 90.355 12.198 91.731 17.008 91.731 19.904 L 91.731 37.879 L 91.461 37.879 C 88.296 37.879 85.589 35.217 85.589 32.052 L 85.589 19.994 C 85.589 18.299 84.902 16.276 81.552 16.276 C 79.992 16.276 79.079 16.46 78.068 16.829 L 78.068 37.879 L 71.922 37.879 L 71.922 14.077 C 74.534 12.931 78.756 12.198 81.781 12.198 M 100.516 12.198 L 100.516 32.102 C 100.516 35.262 97.944 37.879 94.734 37.879 L 94.46 37.879 L 94.46 12.198 Z M 97.481 3.3 C 99.316 3.3 100.786 4.676 100.786 6.371 C 100.786 8.025 99.316 9.352 97.481 9.352 C 95.647 9.352 94.136 8.025 94.136 6.371 C 94.136 4.676 95.647 3.3 97.481 3.3 M 117.974 2.797 C 120.865 2.797 123.572 3.44 125.815 4.811 L 125.815 10.867 C 124.444 9.078 122.47 7.841 119.305 7.841 C 113.069 7.841 109.216 13.987 109.216 20.358 C 109.216 26.369 113.253 32.924 119.305 32.924 C 121.967 32.924 124.394 32.147 125.815 30.218 L 125.815 36.179 C 124.026 37.51 121.229 38.248 117.929 38.248 C 108.024 38.248 102.796 29.166 102.796 20.407 C 102.796 11.784 108.024 2.797 117.974 2.797 M 136.677 12.198 C 137.685 12.198 138.97 12.288 140.117 12.468 L 140.117 17.382 C 138.004 15.871 135.207 16.375 133.971 17.017 L 133.971 32.106 C 133.971 35.267 131.359 37.883 128.194 37.883 L 127.87 37.883 L 127.87 14.167 C 130.253 13.021 132.685 12.198 136.677 12.198 M 156.073 21.828 C 155.893 16.734 152.728 16.186 151.029 16.186 L 150.804 16.186 C 147.36 16.276 145.755 18.708 145.755 23.244 Z M 161.396 25.313 L 146.124 27.421 C 146.627 31.594 148.736 33.797 152.589 33.797 C 156.856 33.797 159.009 32.421 160.569 31.324 L 160.569 36.409 C 159.009 37.236 156.118 38.243 151.991 38.243 C 144.519 38.243 140.072 33.199 140.072 25.128 C 140.072 17.287 144.199 12.198 150.984 12.198 C 157.683 12.198 161.396 16.649 161.396 24.35 Z M 177.407 17.148 C 176.719 16.959 176.007 16.868 175.294 16.878 C 170.254 16.878 169.197 21.734 169.197 25.771 C 169.197 31.414 171.081 34.21 174.884 34.21 C 175.527 34.21 176.953 34.075 177.407 33.981 Z M 183.413 3.3 L 183.413 37.56 C 181.948 37.874 177.132 38.243 175.114 38.243 L 174.7 38.243 C 167.228 38.153 163.145 33.842 163.145 26.09 C 163.145 18.249 167.412 13.205 174.012 13.205 C 175.298 13.205 176.395 13.34 177.362 13.574 L 177.362 9.123 C 177.362 5.912 179.929 3.3 183.139 3.3 Z M 192.333 12.198 L 192.333 32.102 C 192.333 35.262 189.766 37.879 186.556 37.879 L 186.277 37.879 L 186.277 12.198 Z M 189.303 3.3 C 191.138 3.3 192.608 4.676 192.608 6.371 C 192.608 8.025 191.138 9.352 189.303 9.352 C 187.469 9.352 185.958 8.025 185.958 6.371 C 185.958 4.676 187.469 3.3 189.303 3.3 M 203.056 3.3 L 203.056 12.198 L 206.999 12.198 L 206.999 17.103 L 203.056 17.103 L 203.056 30.726 C 203.056 32.376 203.605 32.879 205.394 32.879 C 205.853 32.879 206.541 32.744 206.999 32.56 L 206.999 37.65 C 206.725 37.74 205.529 38.243 203.924 38.243 C 199.433 38.243 196.955 36.04 196.955 32.052 L 196.955 17.103 L 194.294 17.103 L 194.294 12.198 L 196.955 12.198 L 196.955 9.078 C 196.955 5.912 199.523 3.3 202.688 3.3 Z" fill="currentColor"></path><g transform="translate(0 0)"><path d="M 20.815 10.333 L 20.851 10.279 C 21.161 9.83 21.03 9.497 20.824 9.317 L 17.595 7.326 C 17.363 7.17 17.223 6.909 17.222 6.629 C 17.222 6.17 17.497 5.819 18.121 5.648 C 20.113 5.1 27.122 4.812 29.505 4.812 C 30.328 4.812 31.753 4.812 33.03 4.844 L 32.972 4.79 C 25.08 -1.951 13.343 -1.531 5.953 5.757 C -1.436 13.044 -2.019 24.775 4.611 32.759 C 7.129 29.154 13.324 20.247 14.682 18.431 C 16.584 15.907 18.497 13.392 20.423 10.886 L 20.45 10.85 Z M 7.808 35.844 C 15.244 41.574 25.666 41.357 32.858 35.322 C 40.049 29.287 42.072 19.061 37.72 10.742 C 38.407 10.082 39.203 9.034 38.682 7.717 C 38.52 7.326 37.738 6.435 37.54 6.219 L 37.567 6.296 C 38.057 7.766 37.095 8.683 36.398 9.308 C 36.025 9.654 30.949 14.438 24.996 19.649 C 20.29 23.743 15.446 27.676 10.474 31.442 C 5.695 35.021 4.764 35.542 4.764 35.542 C 4.61 35.62 4.441 35.663 4.269 35.668 C 3.994 35.672 3.733 35.547 3.563 35.331 L 3.563 35.322 L 3.55 35.475 C 4.062 36.302 4.912 37.264 5.407 37.264 C 5.578 37.259 5.747 37.218 5.901 37.143 C 5.901 37.143 6.275 36.932 7.803 35.839 Z" fill="currentColor"></path></g></g></svg>