<svg xmlns="http://www.w3.org/2000/svg" viewBox="0 0 180 64"><svg width="180" height="64" fill="none" id="svg593950038_5752"><path d="M160 39.9H20v1.98h140V39.9ZM23.53 53.94h-.92l-2.57-7.27h1.23l1.8 5.29 1.8-5.29h1.26l-2.6 7.27Zm4.89-7.27h-1.19v7.27h1.19v-7.27Zm2.08 7.27v-7.27h5v.99h-3.81v2.12h3.25v.99h-3.25v2.18h3.81v.99h-5Zm11.46 0-3.62-5.12v5.12h-1.18v-7.27h1.09l3.61 5.11v-5.11h1.19v7.27h-1.09Zm7.97 0-3.62-5.12v5.12h-1.18v-7.27h1.08l3.62 5.11v-5.11h1.19v7.27h-1.09Zm7.66 0-.54-1.46h-3.09l-.54 1.46h-1.26l2.87-7.27h.96l2.86 7.27h-1.26Zm-2.06-5.63-1.22 3.23h2.41l-1.19-3.23Zm8.32-1.64h-1.19v7.27h1.19v-7.27Zm6.88 7.27-3.62-5.12v5.12h-1.18v-7.27h1.09l3.61 5.11v-5.11h1.19v7.27h-1.09Zm5.24.07c-1.18 0-2.02-.26-2.77-.97l.8-.72c.57.53 1.2.7 2 .7 1.02 0 1.61-.41 1.61-1.11 0-.32-.09-.58-.3-.76-.2-.18-.4-.25-.86-.31l-.92-.12c-.64-.08-1.14-.29-1.49-.58-.38-.34-.57-.8-.57-1.39 0-1.27.99-2.14 2.62-2.14 1.03 0 1.76.24 2.43.83l-.76.7c-.48-.43-1.04-.56-1.7-.56-.92 0-1.43.49-1.43 1.14 0 .27.09.5.3.67.2.16.52.29.88.34l.89.12c.73.1 1.13.27 1.46.54.43.35.64.87.64 1.49-.01 1.33-1.19 2.13-2.83 2.13Zm7.13 0c-1.59 0-2.8-1.02-2.8-2.52v-4.82h1.19v4.77c0 .97.63 1.57 1.61 1.57.98 0 1.62-.6 1.62-1.57v-4.77h1.19v4.82c0 1.5-1.22 2.52-2.81 2.52Zm9.08-.07-1.64-3.06h-1.49v3.06h-1.18v-7.27h3.03c1.48 0 2.43.89 2.43 2.13 0 1.04-.68 1.71-1.56 1.93l1.8 3.22h-1.39v-.01Zm-1.37-6.28h-1.76v2.28h1.76c.79 0 1.33-.42 1.33-1.13 0-.72-.54-1.15-1.33-1.15Zm8.78 6.28-.54-1.46h-3.09l-.54 1.46h-1.27l2.87-7.27h.95l2.87 7.27h-1.25Zm-2.06-5.63-1.22 3.23h2.41l-1.19-3.23Zm9.27 5.63-3.62-5.12v5.12H102v-7.27h1.08l3.62 5.11v-5.11h1.19v7.27h-1.09Zm5.69.07c-.81 0-1.52-.28-2.06-.78-.77-.71-.76-1.52-.76-2.92s-.02-2.21.76-2.92c.54-.5 1.24-.77 2.06-.77.98 0 1.6.33 2.19.86l-.79.74c-.41-.38-.75-.61-1.4-.61-.46 0-.88.16-1.15.44-.38.39-.46.81-.46 2.27s.08 1.88.46 2.27c.28.28.69.44 1.15.44.65 0 .99-.24 1.4-.61l.79.74c-.59.52-1.21.85-2.19.85Zm3.82-.07v-7.27h4.99v.99h-3.81v2.12h3.26v.99h-3.26v2.18h3.81v.99h-4.99Zm13.98-.77c-.55.54-1.27.84-2.13.84-.81 0-1.52-.28-2.06-.78-.77-.71-.76-1.52-.76-2.92s-.01-2.21.76-2.93c.54-.5 1.22-.77 2.06-.77 1.07 0 1.66.31 2.36.96l-.8.75c-.49-.46-.86-.71-1.56-.71-.46 0-.89.17-1.16.45-.38.39-.46.8-.46 2.26 0 1.46.08 1.88.46 2.27.27.28.7.44 1.16.44.52 0 .94-.18 1.25-.51.29-.3.39-.7.39-1.16v-.4h-1.64v-.95h2.82v1.09c.01.95-.17 1.55-.69 2.07Zm6.74.77-1.65-3.06h-1.48v3.06h-1.19v-7.27h3.03c1.49 0 2.43.89 2.43 2.13 0 1.04-.68 1.71-1.56 1.93l1.8 3.22h-1.38v-.01Zm-1.37-6.28h-1.76v2.28h1.76c.79 0 1.33-.42 1.33-1.13 0-.72-.54-1.15-1.33-1.15Zm8.88 5.57c-.54.5-1.23.78-2.06.78-.84 0-1.52-.28-2.06-.78-.77-.72-.76-1.52-.76-2.92s-.01-2.21.76-2.92c.54-.5 1.22-.78 2.06-.78.83 0 1.52.28 2.06.78.77.72.75 1.52.75 2.92-.01 1.4.01 2.2-.75 2.92Zm-.9-5.18c-.27-.27-.7-.45-1.16-.45-.46 0-.89.17-1.17.45-.38.39-.46.8-.46 2.26 0 1.46.08 1.87.46 2.26.27.28.7.45 1.17.45.46 0 .89-.17 1.16-.45.38-.39.46-.8.46-2.26 0-1.47-.08-1.87-.46-2.26Zm6.12 5.96c-1.59 0-2.8-1.02-2.8-2.52v-4.82h1.19v4.77c0 .97.64 1.57 1.61 1.57.97 0 1.63-.6 1.63-1.57v-4.77h1.19v4.82c-.01 1.5-1.23 2.52-2.82 2.52Zm7.73-2.93h-1.78v2.86h-1.19v-7.27h2.96c1.53 0 2.51.94 2.51 2.2.01 1.27-.97 2.21-2.5 2.21Zm-.06-3.42h-1.71v2.43h1.71c.83 0 1.39-.44 1.39-1.21-.01-.77-.57-1.22-1.39-1.22Zm-45.7-24.96c-.64-1.15-2.03-2.21-4.25-2.21-1.85 0-4.37.65-5.74 1.92-.7-1.12-2-1.92-3.85-1.92-1.58 0-3.77.62-5.01 1.68l-.03-.74c-.03-.41-.3-.56-.76-.56h-1.97c-.46 0-.73.21-.73.68v12.88c0 .53.24.74.79.74h2.13c.52 0 .76-.21.76-.74v-9.4c.97-.82 2.73-1.47 3.92-1.47 1.85 0 2.19 1.24 2.19 2.8v8.07c0 .53.24.74.79.74h2c.52 0 .73-.21.73-.74v-4.92c0-.41-.06-4.36-.12-4.63.94-.74 2.83-1.32 3.98-1.32 1.85 0 2.28 1.21 2.28 2.8v8.07c0 .53.24.74.79.74h2.13c.52 0 .73-.21.73-.74v-7.46c-.03-1.88-.18-3.18-.76-4.27Zm-41.16-2.21c-1.58 0-3.77.62-5.01 1.68l-.03-.74c-.03-.41-.3-.56-.76-.56H62.8c-.46 0-.73.21-.73.68v12.88c0 .41.34.74.76.74h2.16c.52 0 .76-.21.76-.74v-9.4c.97-.82 2.73-1.47 3.92-1.47.17 0 .32.01.47.03.24.03.46-.12.53-.34l.67-2.13c.09-.3-.12-.61-.45-.62-.11-.01-.22-.01-.32-.01Zm9.1 0c-4.74 0-7.41 3.24-7.41 7.49 0 4.3 2.28 7.54 7.23 7.54 4.74 0 7.41-3.27 7.41-7.52 0-4.33-2.27-7.51-7.23-7.51Zm-.15 12.23c-2.7 0-3.46-2.39-3.46-4.8 0-2.36.88-4.63 3.58-4.63 2.67 0 3.46 2.3 3.46 4.71.01 2.42-.9 4.72-3.58 4.72ZM54.4 16.22c-.16.27-.26.58-.26.94 0 1.18 1.06 1.83 2.06 1.83s2.04-.71 2.04-1.86c0-.35-.09-.66-.24-.91h-3.6Zm-.02 18.21c0 .41.34.74.76.74h2.16c.52 0 .76-.21.76-.74V22.49c0-.98-.82-1.78-1.84-1.78-1.01 0-1.84.8-1.84 1.78v11.94Zm-5.8-7.25-2.73-1.09c-1.15-.44-1.49-.85-1.49-1.5 0-.68.64-1.36 1.91-1.36.97 0 2.28.33 3.28.71.09.03.21.06.3.06.21 0 .37-.12.42-.32l.52-1.59c.03-.12.06-.21.06-.3 0-.18-.12-.29-.36-.41-1.52-.65-2.95-.88-4.41-.88-2.7 0-5.49 1.33-5.49 4.21 0 2 1.39 3.3 3.13 3.92l2.4.88c1.24.47 1.82.91 1.82 1.74 0 .97-.91 1.56-2.25 1.56-1.06 0-2.49-.39-3.82-.92-.15-.06-.24-.06-.34-.06-.18 0-.33.12-.42.41l-.49 1.5c-.03.09-.06.18-.06.27 0 .18.09.35.36.47 1.37.59 3.1 1.03 4.68 1.03 3.1 0 5.86-1.48 5.86-4.57.01-1.91-1.27-3.11-2.88-3.76ZM31.61 16.75c-.12-.33-.4-.53-.85-.53h-2.43c-.45 0-.67.24-.82.59L20.1 34.46c-.06.12-.06.24-.06.32 0 .24.12.38.42.38h2.7c.48 0 .7-.24.82-.62l1.47-3.7h7.94l1.44 3.61c.18.47.39.71 1.03.71h2.7c.39 0 .55-.18.55-.47 0-.12 0-.24-.06-.38l-7.44-17.56Zm-5.03 11.24 2.17-5.47c.3-.82.49-1.44.64-1.94h.06c.15.47.33 1.09.6 1.92l2.19 5.49h-5.66Zm95.95 1.29c-1.11 1.86-.45 4.25 1.47 5.32 1.61.9 3.59.6 4.85-.62l1.22-1.18c2.01-1.87 4.07-3.57 7.32-3.57s5.27 1.7 7.27 3.57c2.41 2.25 4.65 4.91 8.36 4.91 4.69 0 6.99-2.25 6.99-2.25-5.78-3.68-9.06-12.86-16.23-12.86-2.72 0-4.09.87-5.53 2.26-.49.48-.78.76-1.22 1.18-.73.7-1.73 1.14-2.84 1.14-2.22 0-4.01-1.74-4.01-3.9 0-1.08.45-2.05 1.18-2.75l2.11-2.04c1.57-1.53 3.48-2.42 6.54-2.42s5.05 1.12 5.05 1.12l-2.57-4.32c-1.01-1.72-2.91-2.87-5.09-2.87-2.18 0-4.09 1.16-5.1 2.87l-9.77 16.41Z" fill="currentColor"></path></svg></svg>