<svg xmlns="http://www.w3.org/2000/svg" viewBox="0 0 180 64"><svg width="180" height="64" fill="none" id="svg753123286_8040"><g clip-path="url(#svg753123286_8040_a)" fill="currentColor"><path d="M120.086 16.188s-2.861-4.076-7.815-6.71c-6.391-3.41-10.821-2.891-10.821-2.891s3.535 6.416 3.823 6.943c.661 1.201 4.918 8.25 4.918 8.25s.166-.435.948-1.353c3.862-4.531 8.947-4.24 8.947-4.24ZM99.237 8.632a16.502 16.502 0 0 1 1.247-1.814s-5.364 2.769-9.134 9.149c-4.024 6.813-3.124 12.392-3.124 12.392s2.11-1.863 5.837-1.852c2.18.003 2.935.448 2.935.448s-3.153-9.017 2.239-18.323Zm5.152 22.372c-1.94 0-3.571 1.415-3.571 3.227 0 .91.276 1.837.733 2.755-1.755.876-2.93 1.936-2.93 3.934 0 2.91 2.355 4.332 4.999 4.332 1.911 0 3.367-.744 4.487-1.921 1.993 1.147 4.069 1.89 5.732 1.958l.091-.69c-1.247-.37-2.996-1.368-4.761-2.664.339-.549.644-1.145.897-1.758.558-1.352.823-2.029 2.088-2.157v-.58c-.687.032-1.403.036-2.124.036a44.77 44.77 0 0 1-2.088-.036v.58c.472.11.979.15 1.447.29 0 .538-.32 1.482-.586 2.12a8.363 8.363 0 0 1-.458.87c-1.619-1.285-3.156-2.794-4.212-4.277 1.522-.71 3.296-1.555 3.296-3.372 0-1.737-1.267-2.647-3.04-2.647Zm-10.658.163c-.37 0-.855.178-1.428.327-.622.164-1.27.341-1.905.49v.597c.165-.012.332-.054.495-.054.9 0 .915.624.915 1.36v10.278c-.636.075-1.299.145-1.923.145-.739 0-.952-.586-.952-1.305v-4.079c0-.902.04-1.733-.64-2.393-.654-.616-1.868-.78-2.711-.78-1.248 0-2.221.202-3.223.472v1.106c.699-.243 1.55-.49 2.326-.49 1.185 0 1.74.432 1.74 1.541v1.142c-2.156 0-6.062.04-6.062 3.01 0 1.858 1.592 2.573 3.278 2.573.95 0 2.205-.277 2.856-1.25.35.973 1.004 1.142 1.978 1.142 2.662 0 5.269-.11 7.948-.11v-.58c-1.528-.135-2.088-.18-2.088-1.16V32.582c0-.493.106-1.414-.604-1.414Zm-43.566.127v.599c1.597.043 1.978.353 1.978 1.595V43.91L50 44.29v.599h11.519l.366-3.843h-.677c-.64 2.674-1.55 2.9-4.23 2.9-1.699 0-1.96-.13-1.96-1.287V32.22l1.96-.326v-.599h-6.813Zm53.968.78c1.044 0 1.41.816 1.41 1.74 0 1.213-1.016 1.856-2.015 2.302-.504-.878-.787-1.713-.787-2.483 0-.776.561-1.56 1.392-1.56Zm-23.66 2.7c-1.002 0-1.752.656-1.996 1.596-.652-.433-1.569-.616-2.345-.616-2.073 0-4.047 1.089-4.047 3.353 0 1.333.71 2.292 1.96 2.774-.397.48-1.559.778-2.18.852-.017.124-.036.24-.036.362 0 .69.201 1.405.824 1.777-.756.344-1.483.947-1.483 1.849 0 1.972 2.533 2.683 4.138 2.683 2.3 0 5-1.097 5-3.753 0-1.885-1.779-2.374-3.37-2.374-.709 0-1.417.054-2.142.054-.332 0-.833-.015-.861-.453.346-.135.688-.404.915-.69.428.107.85.128 1.282.128 2.077 0 3.864-1.273 3.864-3.444 0-.748-.36-1.605-.952-2.085.134-.315.343-.725.751-.725.527 0 .984.246 1.41.562.28-.329.531-.73.531-1.178 0-.553-.858-.671-1.263-.671Zm-13.204 1.052c-2.784 0-4.908 1.758-4.908 4.623 0 2.878 2.188 4.713 5.036 4.713 1.163 0 2.071-.194 3.113-.67v-.762a6.843 6.843 0 0 1-1.977.326c-2.425 0-3.364-1.474-3.425-3.68l6.117-.09c.02-.225.036-.46.036-.69 0-2.247-1.745-3.77-3.992-3.77Zm-.073.87c.929 0 1.428.882 1.428 1.722 0 .718-.41.828-1.044.889l-2.435.217c.06-1.168.629-2.828 2.05-2.828Zm8.79 0c1.318 0 1.666 1.42 1.666 2.665 0 1.17-.444 2.012-1.538 2.012-1.347 0-1.685-1.307-1.685-2.646 0-1.155.467-2.03 1.557-2.03Zm26.224 1.396c1.181 1.736 2.969 3.39 4.926 4.659-.076.07-.154.12-.238.181-.678.528-1.675.798-2.491.798-1.776 0-3.314-1.353-3.314-3.39 0-1.035.42-1.7 1.117-2.248Zm-15.786 2.302v.997c0 .524-.058.93-.238 1.396-.24.627-.866 1.215-1.685 1.215-.978 0-1.391-.596-1.391-1.523 0-1.846 1.95-2.085 3.314-2.085Zm-13.093 4.822c.38.118.854.163 1.373.163.785 0 1.171-.072 1.96-.072.85 0 2.289-.031 2.289 1.015 0 .945-1.192 1.577-3.169 1.577-1.759 0-2.966-.463-2.966-1.704 0-.315.255-.782.513-.979Zm-9.56 1.722c-4.105 0-7.252 3.216-7.252 7.16 0 4.018 2.757 6.889 6.923 6.889 2.071 0 3.787-.431 5.2-1.015v-3.88c0-.976.38-1.214 1.319-1.214h.275v-.67h-6.007v.67l1.685.254v2.683c0 1.755-.462 2.284-2.161 2.284-3.123 0-3.992-3.504-3.992-5.892 0-2.324.838-6.38 4.377-6.38 1.044 0 1.911.336 2.563.906.68.613 1.05 1.486 1.246 2.538h.586l.036-3.444c-1.178-.417-2.799-.889-4.798-.889Zm56.367.055c-.341 0-.836.192-1.41.344-.642.162-1.287.326-1.923.471v.58c.175-.016.35-.036.513-.036.895 0 .897.629.897 1.36v10.296a21.77 21.77 0 0 1-1.922.109c-.726 0-.934-.57-.934-1.287v-4.08c0-.901.019-1.734-.678-2.393-.648-.617-1.83-.78-2.692-.78-1.218 0-2.208.186-3.205.472v1.106c.718-.255 1.553-.49 2.326-.49 1.186 0 1.721.43 1.721 1.541v1.142c-2.138 0-6.043.04-6.043 3.01 0 1.855 1.582 2.573 3.278 2.573.938 0 2.206-.283 2.857-1.25.351.967.986 1.16 1.941 1.16 2.666 0 5.301-.127 7.966-.127v-.598c-1.512-.115-2.087-.167-2.087-1.142v-10.55c0-.512.126-1.432-.605-1.432Zm-13.643 4.55c-.97 0-1.921.86-2.527 1.522v-.217c0-.451.012-1.27-.623-1.27-.412 0-.98.218-1.41.345-.634.161-1.271.32-1.904.472v.58c.167-.016.324-.019.494-.019.867 0 .916.56.916 1.233v5.71l-1.3.218v.598c.82-.044 1.62-.036 2.435-.036 1.083 0 2.206.036 3.296.036v-.598c-1.24-.132-1.904.082-1.904-1.45v-4.732c.392-.33.986-.761 1.502-.761.681 0 .967.639 1.117 1.196.757-.013 1.483-.651 1.483-1.413 0-.93-.695-1.414-1.575-1.414Zm-31.095.036c-2.794 0-4.926 1.758-4.926 4.604 0 2.885 2.188 4.731 5.036 4.731 1.172 0 2.064-.19 3.113-.652v-.78a6.911 6.911 0 0 1-1.96.309c-2.424 0-3.377-1.459-3.442-3.68l6.116-.091c.017-.22.037-.462.037-.67 0-2.254-1.736-3.771-3.974-3.771Zm7.343 0c-.342 0-.833.19-1.41.344-.636.162-1.27.32-1.904.472v.58c.165-.016.328-.019.494-.019.9 0 .916.625.916 1.342v5.601l-1.3.218v.598c.819-.044 1.63-.036 2.454-.036.86 0 1.74.036 2.618.036v-.598c-.895-.089-1.245-.178-1.245-1.142v-5.166c.589-.341 1.623-.671 2.307-.671 1.367 0 1.392 1.263 1.392 2.266v4.495l-1.263.218v.598c.852-.044 1.724-.036 2.582-.036.94 0 1.877.036 2.802.036v-.598c-.953-.15-1.612.065-1.612-1.178V55.04c0-.872.04-2.012-.568-2.7-.505-.588-1.066-.762-1.83-.762-1.176 0-2.813.833-3.81 1.432 0-.48.111-1.432-.623-1.432Zm13.02 0c-2.786 0-4.944 1.758-4.944 4.604 0 2.885 2.195 4.731 5.036 4.731 1.188 0 2.082-.19 3.132-.652v-.78c-.56.18-1.344.309-1.996.309-2.408 0-3.354-1.459-3.406-3.68l6.116-.091c.024-.22.037-.462.037-.67 0-2.254-1.749-3.771-3.974-3.771Zm-20.455.888c.924 0 1.429.864 1.429 1.704 0 .737-.394.808-1.026.87l-2.435.254c.05-1.185.608-2.828 2.032-2.828Zm20.364 0c.926 0 1.41.864 1.41 1.704 0 .737-.386.808-1.025.87l-2.436.254c.062-1.185.617-2.828 2.051-2.828Zm17.159 3.752v.997c0 .526-.038.916-.219 1.396-.26.63-.87 1.215-1.667 1.215-.986 0-1.41-.591-1.41-1.523 0-1.845 1.949-2.085 3.296-2.085Z"></path><path d="M105.273 13.53c-.288-.528-3.823-6.943-3.823-6.943s4.431-.519 10.821 2.89c4.954 2.635 7.815 6.71 7.815 6.71s-5.084-.292-8.947 4.24c-.782.918-.948 1.352-.948 1.352s-4.257-7.049-4.918-8.25Zm-5.698 11.885c-.87.76-1.146 1.27-1.146 1.27s-3.468-9.181 1.791-18.652c.362-.65.797-1.173.797-1.173s3.272 6.785 3.963 8.12l3.886 7.5s-5.305-.556-9.291 2.935Zm-5.511 1.091c-3.727-.01-5.838 1.853-5.838 1.853s-.9-5.58 3.124-12.393c3.77-6.38 9.135-9.148 9.135-9.148s-.672.83-1.248 1.814c-5.39 9.305-2.239 18.323-2.239 18.323s-.756-.445-2.934-.448Zm19.265-22.905C120.637 3.668 127 8.183 127 8.183s-1.935.565-3.873 2.482c-1.964 1.94-2.318 4.009-2.318 4.009s-5.257-6.43-14.971-8.218c-2.488-.456-3.974-.295-3.974-.295s4.63-2.626 11.465-2.56Zm10.379 33.167s-.257-.136-.757.15c-.442.267-.396.551-.396.551s.021.04.021.045c.127.204.646 1.106.871 1.626.236.528.291 1.224-.536 1.79-.443.298-1.273.502-1.942.17a1.654 1.654 0 0 1-.58-.515c-.285-.391-3.736-6.736-3.736-6.736l-5.735-10.5s-.137-.26-.119-.381c.028-.202.083-.284.154-.393 3.726-5.943 10.664-5.321 10.664-5.321s-.035-.769.167-1.812c1.151-5.766 8.179-7.024 8.179-7.024s-2.749-2.197-6.986-3.7c-3.082-1.098-5.592-1.682-9.459-1.685-4.543-.003-8.533 1.353-8.996 1.495-1.263.391-3.145 1.348-3.145 1.348l-1.721-2.633s-.065-.04-.192.026c-.113.06-.116.143-.116.143l1.127 2.905s-.408.2-.912.501c-.933.564-2.434 1.455-4.801 3.702-1.43 1.356-3.464 3.834-5.04 6.678-3.666 6.643-2.807 13.382-2.807 13.382s2.887-3.008 7.19-2.968c2.706.028 4.278.85 4.278.85s.627-1.105 1.834-2.169c2.208-1.95 5.606-2.769 8.112-2.748.558.002.851.021 1.04.08a.569.569 0 0 1 .255.189l9.437 17.166s.727 1.69 2.837 1.601c2.054-.085 3.087-1.477 3.087-2.854.008-1.143-1.044-2.603-1.247-2.926l-.03-.033Z"></path></g><defs><clipPath id="svg753123286_8040_a"><path fill="currentColor" transform="translate(50 3)" d="M0 0h80v58H0z"></path></clipPath></defs></svg></svg>