<svg xmlns="http://www.w3.org/2000/svg" viewBox="0 0 180 64"><svg width="180" height="64" fill="none" id="svg-811491584_3614"><path fill-rule="evenodd" clip-rule="evenodd" d="M57.807 26.477c-1.626 0-3.467.822-4.529 5.84-1.18 5.579 1.174 5.935 2.315 5.935 1.038 0 3.247-.562 4.346-5.905.77-3.739.157-5.87-2.132-5.87Zm8.078 5.87c-1.487 8.443-6.766 9.522-11.233 9.522-4.411 0-8.474-3.025-7.325-9.565.898-5.11 3.946-9.84 11.358-9.478 5.169.252 8.209 3.777 7.2 9.521Zm11.251 8.794-.278.275c-1.107.208-2.407.379-3.113.379-2.612 0-6.444-.392-4.824-6.953a886.074 886.074 0 0 0 1.884-7.752l-2.42.07-.209-.274 1.004-3.48.242-.172h2.282l1.004-4.442.241-.24c2.596-.585 3.287-.758 5.674-1.448l.207.208-1.522 5.992 3.529-.07.137.241c-.484 1.447-.623 1.827-1.072 3.444l-.275.24-3.183-.069s-.647 2.674-1.551 6.394c-.978 4.021-.463 3.819.515 4.201.836.33 1.933-.092 2.556-.298l.21.175-1.038 3.58Zm9.717-3.435c1.639.194 3.424-.345 4.634-1.345 1.383-1.17 2.628-3.58 2.628-6.197 0-2.894-1.867-3.237-2.558-3.237-1.002 0-1.765.516-2.492.998l-2.212 9.781Zm2.802-13.19c.9-.619 2.386-1.653 4.634-1.653 3.46 0 5.776 2.581 5.776 6.956 0 2.48-.864 5.407-2.663 7.576-3.424 4.167-7.747 4.131-11.415 4.131l-1.967 8.23-.243.172c-.796 0-1.557-.031-2.352-.031-1.177 0-2.215.067-3.493.103l-.173-.243s1.217-3.65 2.734-9.925c1.593-6.584 3.082-14.299 3.212-15.87l.242-.238 5.915-.963.207.24-.414 1.515Zm14.947 14.251c1.959.091 4.842.034 7.09-1.48 2.56-1.759 3.772-4.823 3.772-7.028 0-3.131-1.904-4.338-4.119-4.338-1.763 0-3.007.759-4.115 1.447 0 0-2.414 10.554-2.628 11.4Zm-4.22 2.512c.23-1.045 1.722-7.162 3.244-14.043 1.305-5.901 2.214-9.585 2.533-12.335l.275-.241 3.771-.654.173.243-.968 3.821-1.593 6.611c1.455-.792 2.837-1.55 5.051-1.55 3.423 0 6.295 2.308 6.295 6.649 0 1.755-.553 5.06-2.872 7.712-3.111 3.547-6.951 3.788-11.413 3.961h-1.902l-2.421.034-.173-.208Zm34.762-15.149c-.52 0-1.038-.034-1.558-.034-1.142 0-3.39.068-5.432 1.445-3.631 2.478-3.699 6.923-3.699 7.094 0 1.653.9 4.304 4.046 4.304.933 0 2.479-.22 4.15-1.688l2.493-11.122Zm2.556 4.37c-1.209 5.304-1.45 6.613-2.142 10.712l-.242.24-3.251.07-.174-.24.242-1.378c-.587.481-2.11 1.755-5.051 1.755-3.526 0-6.397-2.479-6.397-6.783 0-2.719 1.315-5.681 2.767-7.404 3.215-3.753 7.677-3.961 10.86-3.961l4.772.033.172.277-1.556 6.68Zm17.128 10.746-.277.205-3.527.105-.141-.242c.509-2.319 2.639-10.085 2.664-12.501.024-2.066-1.277-2.756-2.905-2.756-2.143 0-3.561 1.07-4.598 1.828-1.282 5.785-1.697 7.611-2.804 13.36l-.24.206-3.53.105-.172-.242s1.049-4.214 1.995-8.596c.745-3.432 1.355-6.26 1.637-8.62l.242-.243c1.626-.205 2.007-.274 3.665-.619l.173.24-.483 1.757c1.349-.896 3.079-2.099 5.949-2.099 1.14 0 4.876.307 4.876 4.475 0 2.492-2.186 11.204-2.524 13.637Zm13.217-10.268 5.361 10.158-.209.274-3.838.105-.279-.208c-.893-2.418-4.806-10.019-4.806-10.019-1.002 4.373-1.21 5.405-2.075 9.95l-.243.207-3.492.07-.138-.208s1.845-7.635 3.442-14.702c.747-3.304 1.906-8.538 2.367-11.71l.245-.207 3.768-.618.207.242c-.696 2.378-3.975 16.493-3.975 16.493 2.478-2.163 6.604-6.474 7.157-7.06l.381-.207h3.979l.103.31c-.982.774-2.803 2.412-3.459 2.997l-4.496 4.133ZM21.063 14v6.145c-6.016.01-10.89 4.87-10.89 10.862 0 6 4.885 10.863 10.91 10.863 5.99 0 10.91-4.82 10.91-10.903l6.174.004c0 9.43-7.65 17.045-17.084 17.045C11.648 48.016 4 40.401 4 31.007 4 21.621 11.639 14.01 21.063 14Z" fill="currentColor"></path><path fill-rule="evenodd" clip-rule="evenodd" d="M21.126 23.46c4.187 0 7.578 3.38 7.578 7.546 0 4.167-3.391 7.543-7.577 7.543-4.184 0-7.577-3.376-7.577-7.543 0-4.166 3.393-7.546 7.576-7.546Zm9.599-6.337a4.335 4.335 0 0 1 4.342 4.326c0 2.386-1.944 4.322-4.342 4.322-2.397 0-4.343-1.936-4.343-4.322 0-2.387 1.946-4.326 4.343-4.326Z" fill="currentColor"></path></svg></svg>