<svg xmlns="http://www.w3.org/2000/svg" viewBox="0 0 180 64"><g transform="translate(25 11)" opacity="0.8"><path d="M 129.305 14.893 L 124.338 14.893 L 122.584 20.214 C 122.201 21.395 121.954 22.395 121.678 23.934 L 121.625 23.934 C 121.254 22.299 120.986 21.182 120.618 20.063 L 118.871 14.893 L 113.792 14.893 L 119.078 29.932 L 123.955 29.932 L 129.305 14.893 M 93.272 29.932 L 97.875 29.932 L 97.875 7.845 L 93.272 7.845 Z M 113.103 29.932 C 113.011 28.565 113.011 27.15 113.011 26.361 L 113.011 19.915 C 113.011 16.292 111.532 14.563 106.299 14.563 C 104.505 14.563 102.689 14.865 101.088 15.376 L 101.088 19.492 C 102.45 18.769 104.359 18.25 105.691 18.25 C 107.868 18.25 108.379 18.884 108.379 20.126 L 108.379 20.637 C 103.781 20.637 99.906 22.21 99.906 26.145 C 99.906 28.539 101.359 30.264 104.296 30.264 C 106.378 30.264 108.169 29.232 108.804 27.757 L 108.833 27.783 C 108.712 28.418 108.712 29.205 108.712 29.932 Z M 108.379 23.934 C 108.379 25.39 107.328 26.785 105.752 26.785 C 104.837 26.785 104.296 26.241 104.296 25.454 C 104.296 24.213 105.536 23.456 108.379 23.456 L 108.379 23.934 M 57.197 29.75 L 57.197 25.965 C 56.715 26.204 56.052 26.329 55.503 26.329 C 54.349 26.329 53.966 25.842 53.966 24.269 L 53.966 18.437 L 57.197 18.437 L 57.197 14.893 L 53.934 14.893 L 53.934 9.198 L 49.33 10.445 L 49.33 14.893 L 47.066 14.893 L 47.066 18.437 L 49.33 18.437 L 49.33 25.421 C 49.33 29.114 50.449 30.264 53.934 30.264 C 55.024 30.264 56.198 30.076 57.199 29.75 M 68.014 19.006 L 68.014 14.53 C 65.748 14.442 64.388 15.772 63.692 17.316 L 63.659 17.316 C 63.784 16.501 63.807 15.433 63.807 14.893 L 59.487 14.893 L 59.487 29.932 L 64.085 29.932 L 64.085 23.577 C 64.085 19.731 65.564 18.465 68.014 19.006 M 69.686 29.932 L 74.282 29.932 L 74.282 14.893 L 69.686 14.893 Z M 71.991 7.866 C 70.437 7.866 69.17 9.081 69.17 10.595 C 69.17 12.109 70.437 13.322 71.991 13.322 C 73.557 13.322 74.797 12.082 74.797 10.595 C 74.797 9.081 73.557 7.866 71.991 7.866 M 90.663 30.237 L 90.663 15.041 C 88.743 14.72 86.799 14.56 84.852 14.563 C 79.344 14.563 76.467 18.307 76.467 23.245 C 76.467 27.757 78.431 30.294 82.069 30.294 C 83.918 30.294 85.456 29.383 86.181 27.902 L 86.238 27.902 C 86.114 28.631 86.093 29.328 86.093 30.076 L 86.093 30.564 C 86.093 32.779 84.852 33.743 82.217 33.743 C 80.858 33.743 78.98 33.289 77.498 32.598 L 77.318 36.893 C 78.646 37.32 80.345 37.642 82.035 37.642 C 88.848 37.642 90.663 34.168 90.663 30.237 Z M 86.062 22.036 C 86.062 24.633 84.97 26.453 83.401 26.453 C 82.002 26.453 81.344 25.269 81.344 22.76 C 81.344 19.4 82.704 18.25 84.487 18.25 C 85.12 18.25 85.607 18.346 86.063 18.437 L 86.063 22.036" fill="currentColor"></path><path fill-rule="evenodd" d="M 0 40 L 40.013 40 L 40.013 0 L 0 0 Z M 27.326 20.073 C 27.306 24.085 24.046 27.326 20.034 27.321 C 16.022 27.321 12.771 24.088 12.701 20.073 L 12.701 12.734 L 30.925 12.734 L 30.925 9.119 L 9.109 9.109 L 9.109 20.072 C 9.129 26.092 14.014 30.961 20.034 30.961 C 26.055 30.965 30.943 26.093 30.959 20.072 L 27.326 20.072 M 30.934 18.236 L 30.934 14.574 L 14.574 14.579 L 14.58 20.074 C 14.602 23.076 17.04 25.498 20.042 25.5 C 23.046 25.503 25.488 23.078 25.504 20.074 L 21.855 20.074 C 21.855 21.082 21.038 21.9 20.029 21.9 C 19.021 21.9 18.203 21.082 18.203 20.074 L 18.203 18.236 L 30.934 18.236" fill="currentColor"></path></g></svg>