<svg viewBox="4.32 6.56 171.36 50.88" xmlns="http://www.w3.org/2000/svg" fill="none" id="svg129224162_9617"><path d="M26.183 48.598c-.323.253-.576.24-.91.046-2.792-1.623-5.407-3.487-7.78-5.683-3.177-2.94-5.774-6.322-7.696-10.216a1.075 1.075 0 0 1-.089-.787c.75-3.126 1.205-6.29 1.129-9.515-.066-2.797-.55-5.532-1.31-8.219-.291-1.025-.607-2.042-.932-3.131 13.127-4.394 26.124-4.13 39.038.947l-.9 3.394c-11.354-4.238-22.85-4.604-34.54-1.438l.209 1.393c.405 2.726.464 5.461.245 8.206-.209 2.617-.693 5.185-1.324 7.728a.88.88 0 0 0 .043.527c1.874 4.265 4.436 8.066 7.725 11.36 2.067 2.071 4.351 3.865 6.918 5.282.052.029.101.062.174.106Z" fill="#727272"></path><path d="M42.064 15.058c1.437.537 2.843 1.066 4.252 1.585.18.067.185.165.157.33a30.574 30.574 0 0 0-.428 5.86c.066 3.064.572 6.063 1.343 9.021.103.397.199.798.33 1.185.102.303.068.567-.046.86a42.112 42.112 0 0 1-5.779 10.297c-2.348 3.078-5.058 5.787-8.188 8.068-.177.129-.317.15-.528.071a55.661 55.661 0 0 1-5.892-2.609c-.08-.042-.158-.09-.219-.124.939-.556 1.9-1.077 2.811-1.674 3.77-2.468 6.868-5.629 9.447-9.317a37.477 37.477 0 0 0 3.728-6.713.825.825 0 0 0 .054-.494c-.614-2.378-1.077-4.783-1.314-7.229-.29-2.988-.24-5.97.22-8.94.005-.03.017-.058.053-.178l-.001.001Z" fill="#727272"></path><path d="m6.147 12.084 1.333-.534c.221.714.442 1.406.65 2.101.83 2.783 1.4 5.612 1.5 8.524.096 2.83-.233 5.617-.82 8.379-.12.571-.28 1.135-.385 1.71-.031.171.023.384.1.548a34.917 34.917 0 0 0 5.623 8.45c3.47 3.872 7.578 6.919 12.175 9.295 1.815.938 3.715 1.711 5.575 2.56.092.042.186.081.31.135-.08.066-.135.12-.198.16a32.237 32.237 0 0 1-4.808 2.522.724.724 0 0 1-.613-.004c-3.32-1.384-6.302-3.311-9.014-5.667-4.003-3.476-7.198-7.598-9.619-12.315-.71-1.384-1.282-2.84-1.906-4.268a.697.697 0 0 1-.027-.436c.677-2.37 1.21-4.771 1.496-7.222.284-2.427.311-4.855.044-7.286a34.05 34.05 0 0 0-1.364-6.43c-.018-.059-.028-.119-.052-.222Zm25.185 9.467c-.301 0-.546-.01-.79.002-.57.03-.966.31-1.146.86-.126.39-.227.788-.358 1.175-.028.084-.133.196-.206.199-.49.018-.98.01-1.509.01.026-.496.047-.962.075-1.429.032-.522.068-1.045.102-1.567.034-.523.324-.8.849-.8h9.46c.515 0 .813.23.852.727.077.993.12 1.988.176 2.982.002.017-.018.036-.038.07h-1.616c-.104-.363-.197-.73-.313-1.09-.294-.914-.617-1.145-1.567-1.146h-.46v11.805h-3.511V21.551Z" fill="#727272"></path><path d="M24.209 26.843c-.295-.068-.593-.117-.89-.175.158-.07.317-.096.474-.133.905-.21 1.717-.571 2.166-1.457.57-1.125.452-3.197-.994-4.215-.872-.613-1.858-.849-2.898-.857-2.202-.016-4.404-.005-6.605-.005h-.318v1.402c.131.009.222.013.313.021.543.052.815.315.87.858.02.203.03.41.03.615v9.556c0 .63.288.922.921.922 1.67.002 3.34.017 5.008-.007.61-.009 1.228-.067 1.828-.18 1.54-.292 2.381-1.123 2.57-2.612.233-1.84-.418-3.257-2.475-3.733Zm-4.328-5.26c.27 0 .533-.017.79-.016.154 0 .305.006.455.025.3.039.54.114.732.235.128.081.234.183.321.307.13.186.219.425.274.722a5.072 5.072 0 0 1 .084 1.025 4.88 4.88 0 0 1-.128 1.023c-.13.56-.473.906-1.052.96a11.901 11.901 0 0 1-.731.047c-.245.01-.493.02-.745.032v-4.36Zm3.06 9.117c-.165.725-.57 1.119-1.307 1.186-.567.052-1.142.01-1.75.01v-4.525c.65.038 1.287.026 1.907.124.655.104 1.014.589 1.153 1.217.144.66.146 1.329-.003 1.988Zm31.235-4.355c.876 0 1.095-.222 1.095-1.185v-7.55c0-.963-.292-1.185-1.095-1.185v-.814h5.183c2.336 0 3.869.962 3.869 3.035 0 1.555-.95 2.295-2.41 2.518v.073c1.972.223 2.848 1.26 2.848 2.814 0 1.925-1.241 2.961-3.87 2.961h-5.62v-.666Zm4.672-5.627c1.24 0 1.679-.444 1.679-1.925 0-1.48-.511-1.998-1.752-1.998h-.949v3.923h1.022Zm.292 5.257c1.387 0 1.898-.445 1.898-2.073 0-1.48-.511-2.073-1.898-2.073h-1.314v4.146h1.314Zm11.68-2h-3.504l-.438 1.407c-.073.148-.073.297-.073.445 0 .444.292.444 1.022.518v.74H64.25v-.74c.73-.074.949-.222 1.168-1.11l3.066-9.551h2.044l3.358 9.55c.292.74.438 1.037 1.095 1.11v.741h-4.6v-.74c.73 0 1.023-.148 1.023-.518 0-.148 0-.297-.073-.445l-.511-1.406Zm-3.14-1.184h2.775l-.876-2.813c-.22-.592-.365-1.259-.511-1.85h-.073c-.073.295-.22.887-.511 1.924l-.803 2.74Zm15.987-5.182c0-.963-.291-1.185-1.094-1.185v-.74h3.576v.814c-.876 0-1.095.222-1.095 1.185v9.476H83.23l-4.014-6.219a19.973 19.973 0 0 1-1.314-2.443h-.073c.073.815.146 1.703.146 2.517v4.294c0 .963.292 1.185 1.094 1.185v.74h-3.65v-.74c.877 0 1.096-.222 1.096-1.185v-7.7c0-.962-.292-1.184-1.095-1.184v-.814h3.796l3.43 5.479c.439.666.803 1.406 1.096 2.146h.072c-.073-.814-.145-1.628-.145-2.443V17.61Zm3.65 3.924c0-4.146 2.117-6.071 5.256-6.071 1.241-.074 2.41.222 3.504.814v2.221h-1.752c-.292-1.258-.657-1.925-1.752-1.925-1.533 0-2.409 1.037-2.409 4.813 0 3.997.95 4.738 2.41 4.738 1.313 0 1.678-.593 1.897-1.925h1.68v2.147c-1.096.666-2.41.962-3.65.888-3.359.074-5.184-1.999-5.184-5.7Zm15.841 2.443h-3.43l-.439 1.406c-.073.148-.073.297-.073.445 0 .444.292.444 1.022.518v.74h-3.577v-.74c.73-.074.95-.222 1.241-1.11l3.066-9.551h2.044l3.212 9.55c.292.74.438 1.037 1.095 1.11v.741h-4.599v-.74c.73 0 1.022-.148 1.022-.518 0-.148 0-.297-.073-.445l-.511-1.406Zm-3.139-1.185h2.774l-.876-2.813c-.219-.592-.365-1.259-.511-1.85h-.073c-.073.295-.219.887-.511 1.924l-.803 2.74Zm-36.62 12.367.146 2.96h-1.244c-.293-1.372-.44-1.877-1.464-1.877h-.732v8.157c0 .938.293 1.155 1.318 1.155v.722h-5.124v-.722c.951 0 1.317-.216 1.317-1.155v-8.157h-.732c-1.024 0-1.17.433-1.464 1.877h-1.244l.146-2.96H63.4Zm6.88 6.136c.732.144 1.318.578 1.757 1.155.44.722.879 1.444 1.245 2.166.292.65.439.938 1.244.938v.722H71.23c-.44-1.155-1.025-2.238-1.61-3.32-.586-1.011-.952-1.3-1.757-1.372v2.815c0 .938.293 1.155 1.098 1.155v.722h-4.758v-.722c.878 0 1.098-.216 1.098-1.155v-7.363c0-.938-.293-1.155-1.098-1.155v-.794H69.4c2.342 0 4.026.866 4.026 3.176 0 1.95-1.39 2.815-3.148 2.888v.144Zm-1.317-5.053h-1.025v4.187h.952c1.244 0 1.83-.433 1.83-2.094 0-1.516-.513-2.093-1.757-2.093Zm12.077 7.074h-3.513l-.44 1.372c-.073.144-.073.289-.073.433 0 .433.293.433 1.025.505v.722h-3.586v-.722c.732-.072.951-.216 1.17-1.083l3.075-9.384h2.05l3.22 9.312c.293.722.44 1.01 1.098 1.083v.722h-4.611v-.722c.732 0 1.025-.144 1.025-.505 0-.145 0-.289-.074-.433l-.366-1.3Zm-3.147-1.227h2.781l-.878-2.743c-.22-.578-.366-1.227-.512-1.805h-.073c-.074.289-.22.867-.513 1.877l-.805 2.671Zm15.957-5.053c0-.938-.293-1.155-1.098-1.155v-.794h3.587v.794c-.879 0-1.098.216-1.098 1.155v9.24h-1.83l-3.953-6.064c-.512-.794-.951-1.588-1.39-2.382h-.074c.073.794.147 1.66.147 2.454v4.187c0 .939.292 1.155 1.097 1.155v.722h-3.66v-.722c.879 0 1.099-.216 1.099-1.155v-7.435c0-.938-.293-1.155-1.098-1.155v-.794h3.733l3.44 5.342c.44.65.805 1.371 1.098 2.093h.073c-.073-.794-.146-1.588-.146-2.382l.073-3.104Zm3.806 8.518v-2.166h1.684c.146 1.444.805 2.094 2.049 2.094 1.245 0 1.903-.578 1.903-1.805 0-1.01-.439-1.516-1.756-1.877l-1.172-.288c-1.683-.434-2.708-1.3-2.708-3.177 0-2.31 1.537-3.465 3.953-3.465a6.116 6.116 0 0 1 3.367.794v2.238h-1.684c-.146-1.227-.585-1.949-1.903-1.949-.805-.072-1.537.505-1.61 1.3v.216c0 .866.366 1.372 1.537 1.66l1.098.29c1.83.432 3.074 1.443 3.074 3.464 0 2.31-1.537 3.61-4.318 3.61-1.172 0-2.416-.29-3.514-.939Zm10.394-8.518c0-.938-.293-1.155-1.098-1.155v-.794h4.758v.794c-.878 0-1.098.216-1.098 1.155v7.363c0 .938.293 1.155 1.098 1.155v.722h-4.758v-.722c.879 0 1.098-.216 1.098-1.155v-7.363Zm8.637 8.157h1.538c1.024 0 1.61-.433 1.903-2.021h1.244l-.22 3.104h-8.124v-.722c.878 0 1.097-.216 1.097-1.155v-7.363c0-.938-.292-1.155-1.097-1.155v-.794h4.831v.794c-.879 0-1.172.216-1.172 1.155v8.157Zm7.832 1.083-3.22-9.384c-.293-.794-.439-.939-1.098-1.011v-.722h4.684v.722c-.658 0-.951.216-.951.577 0 .145 0 .217.073.361l1.61 5.198c.22.65.366 1.371.44 2.093h.073c.146-.722.293-1.443.512-2.093l1.611-5.125c.073-.145.073-.217.073-.361 0-.361-.293-.578-1.025-.578v-.722h3.587v.722c-.659.072-.952.217-1.172 1.083l-3.147 9.384-2.05-.144Zm11.566-3.032h-3.514l-.439 1.372c-.073.144-.073.288-.073.433 0 .433.293.433 1.025.505v.722h-3.587v-.722c.732-.072.951-.216 1.171-1.083l3.074-9.312h2.05l3.22 9.312c.293.722.44 1.01 1.098 1.083v.722h-4.611v-.722c.732 0 1.025-.144 1.025-.505 0-.145 0-.289-.073-.433l-.366-1.372Zm-3.148-1.155h2.782l-.879-2.743c-.219-.578-.366-1.227-.512-1.805h-.073c-.074.289-.22.867-.513 1.877l-.805 2.671Zm15.957-5.053c0-.938-.293-1.155-1.098-1.155v-.722h3.587v.794c-.879 0-1.098.217-1.098 1.155v9.24h-1.83l-4.026-6.064c-.512-.794-.951-1.588-1.391-2.382h-.073c.073.794.147 1.66.147 2.455v4.186c0 .939.292 1.155 1.097 1.155v.722h-3.659v-.721c.878 0 1.098-.217 1.098-1.156v-7.507c0-.938-.293-1.155-1.098-1.155v-.794h3.733l3.44 5.342c.439.65.805 1.371 1.098 2.093h.073c-.073-.794-.146-1.588-.146-2.382l.146-3.104Zm4.758 0c0-.938-.293-1.155-1.098-1.155v-.722h4.758v.794c-.879 0-1.098.217-1.098 1.155v7.363c0 .939.293 1.155 1.098 1.155v.722h-4.758v-.722c.878 0 1.098-.216 1.098-1.155v-7.435Zm10.687 6.208h-3.514l-.439 1.372c-.073.144-.073.288-.073.433 0 .433.293.433 1.025.505v.722h-3.514v-.722c.732-.072.952-.216 1.171-1.083l3.075-9.312h2.049l3.221 9.384c.293.722.439 1.011 1.098 1.083v.722h-4.612v-.722c.732 0 1.025-.144 1.025-.505 0-.144 0-.289-.073-.433l-.439-1.444Zm-3.148-1.155h2.782l-.879-2.743c-.219-.578-.366-1.227-.512-1.805h-.073c-.073.289-.22.867-.513 1.877l-.805 2.671Zm7.686-5.486a2.528 2.528 0 0 1 2.562-2.527c1.391 0 2.562 1.083 2.562 2.527 0 1.444-1.098 2.526-2.562 2.526-1.391 0-2.562-1.155-2.562-2.526Zm4.758 0c0-1.227-1.025-2.166-2.196-2.166-1.171 0-2.196 1.01-2.196 2.166 0 1.227 1.025 2.165 2.196 2.165 1.171 0 2.196-.938 2.196-2.165Zm-2.269 1.444h-1.318V37.9c.366 0 .366-.144.366-.433v-1.66c0-.289 0-.433-.366-.433v-.217h1.171c.659 0 1.098.144 1.098.794s-.366.722-.878.794c.219.072.439.289.585.433.074.072.147.217.22.433.073.217.146.29.439.29v.143h-.732l-.366-.721c-.293-.433-.293-.578-.732-.65v.722c0 .36.073.433.439.433l.074.216Zm-.147-2.744h-.219v1.155h.292c.513 0 .659-.144.659-.577 0-.433-.219-.505-.732-.578Z" fill="#727272"></path></svg>
