<svg viewBox="16.56 12.92 146.88 38.16" xmlns="http://www.w3.org/2000/svg" fill="none" id="svg-777435740_6705"><path fill-rule="evenodd" clip-rule="evenodd" d="M27.93 38.026c.099.04.198.06.318.099-.1-.04-.2-.06-.319-.099Zm11.358-19.114-2.646-1.755c-.457.04-.915.078-1.372.157-7.002 1.006-14.243 5.09-16.193 9.114-.517 1.065-.617 2.032-.338 2.84l.14.375c.716 1.697 1.014 2.17 1.949 3.472-.597-.888-.656-2.032 0-3.354 1.89-3.866 8.872-7.811 15.595-8.778.2-.039.418-.059.617-.079l2.248-1.992Zm-10.563-4.221-1.65-.69c-3.82 1.518-7.063 3.866-8.197 6.193-.096.19-.176.389-.238.592-.14.454-.279 1.085-.398 1.559-.18.966-.18 1.104-.239 2.446v.552c-.02-.592.14-1.223.457-1.913 1.293-2.664 5.033-5.366 9.43-7.102l.835-1.637Z" fill="#727272"></path><path fill-rule="evenodd" clip-rule="evenodd" d="M26.239 34.476c1.253-2.604 5.748-5.247 10.264-6.135l2.208-2.229-2.984-1.538c-5.61 1.163-11.14 4.438-12.69 7.653-.797 1.637-.439 2.979.815 3.827.28.191.565.375.855.552 1.094.612 1.392.75 2.566 1.204.199.059.438.138.656.197-1.79-.572-2.526-1.854-1.69-3.531Z" fill="#727272"></path><path fill-rule="evenodd" clip-rule="evenodd" d="M33.2 37.119c-.079-.178-.059-.395.06-.651 0 0 0-.02.02-.02v-.02c.418-.789 1.751-1.578 3.123-1.873l1.512-1.874-2.267-.986c-2.825.789-5.45 2.445-6.247 4.102-.954 1.953 1.035 3.137 4.436 2.663h.02c.378-.059.418-.059 1.114-.217.04 0 .06-.02.1-.02-.995-.177-1.711-.571-1.87-1.104Zm43.227-7.555h5.789c-.06-1.539-1.293-2.82-2.745-2.88-1.612-.06-2.825 1.085-3.044 2.88Zm10.424 2.88H76.347c.22 1.262.677 2.347 1.91 2.8 1.97.731 3.7.277 5.112-1.34.995.75 1.97 1.48 2.984 2.248-.816 1.046-1.79 1.815-3.003 2.269-2.447.927-4.914.986-7.321-.079-2.128-.927-3.461-2.584-3.998-4.833-.657-2.762-.338-5.385 1.452-7.673 1.79-2.289 4.297-2.998 7.082-2.604 2.844.394 4.714 2.051 5.709 4.695.517 1.44.656 2.92.577 4.517Zm20.727-.119c-1.074.06-2.128.08-3.162.178-.379.04-.756.217-1.095.414-.537.296-.716.81-.676 1.4.04.593.298 1.106.875 1.342 1.075.454 2.109.316 3.024-.414.895-.73 1.194-1.696 1.034-2.92Zm-.019-2.8c.119-1.717-.916-2.723-2.666-2.663a4.406 4.406 0 0 0-2.944 1.222c-.08.08-.179.158-.259.237-.02.02-.04 0 .02 0l-2.666-2.525c.697-.868 1.552-1.46 2.547-1.854 2.347-.966 4.774-1.026 7.141-.138 2.168.809 3.183 2.545 3.342 4.774.079 1.184.06 2.367.06 3.55v6.53h-4.417v-1.44c-1.79 2.07-3.978 2.288-6.325 1.499-1.99-.67-3.103-2.466-3.024-4.577.08-2.07 1.254-3.51 3.362-4.142 1.591-.474 3.203-.474 4.834-.474h.995Zm12.273 9.133h-4.436v-15.09h4.336v1.636c1.373-1.755 3.143-2.189 5.113-2.011 2.466.216 4.138 1.854 4.416 4.3.06.454.08.927.08 1.38v9.785h-4.476v-8.739c-.003-.29-.016-.58-.04-.868-.079-.868-.398-1.637-1.293-1.953-.935-.335-1.85-.217-2.646.434-.775.651-1.074 1.519-1.094 2.525v8.6h.04ZM59.439 25.422c-.796.868-1.572 1.755-2.387 2.662-1.373-1.124-2.964-1.499-4.675-1.38-.418.02-.875.118-1.233.316-.259.137-.497.512-.517.789-.02.256.258.63.497.749.557.237 1.174.375 1.77.513 1.273.296 2.586.453 3.84.868 1.83.611 2.884 1.933 2.944 3.885.06 2.033-.816 3.552-2.646 4.479-1.67.848-3.481.966-5.311.828-2.189-.158-4.217-.789-5.908-2.229a9.764 9.764 0 0 1-.478-.454c.876-.907 1.71-1.795 2.467-2.584.915.474 1.73.967 2.606 1.322 1.054.414 2.188.453 3.322.335.278-.02.537-.098.796-.197.457-.158.775-.474.795-.986 0-.494-.318-.809-.756-.927-.875-.218-1.77-.336-2.626-.573-1.133-.295-2.287-.532-3.361-1.026-1.612-.73-2.348-2.13-2.348-3.866 0-1.755.816-3.116 2.368-3.945 2.188-1.144 4.515-1.164 6.882-.69 1.592.375 3.163 1.203 3.959 2.11Zm38.432-7.28c-.239 1.066-.478 2.111-.716 3.216-.359-.04-.697-.098-1.034-.138-1.712-.158-2.368.513-2.13 2.288h3.542v3.63h-3.58v11.52h-4.477c0-3.827-.02-15.663-.02-15.919.04-2.82 1.413-4.458 4.218-4.932 1.392-.236 2.784-.098 4.197.336ZM69.882 35.128c.299 1.143.597 2.268.895 3.412-1.59.473-3.162.69-4.773.453a5.903 5.903 0 0 1-1.771-.512c-1.572-.77-2.109-2.15-2.129-3.788-.04-2.308-.02-4.635-.02-6.943 0-.158-.02-5.464-.02-7.811 0-.513.319-.947.816-1.125 1.194-.395 2.228-.73 3.68-1.282v5.977h3.7v3.61h-3.64c-.02.217-.04.355-.04.513v5.76c.06 1.657.637 2.13 2.288 1.913.318-.04.636-.119 1.014-.178Z" fill="#727272"></path><path d="M137.059 23.568h-4.416v15.09h4.416v-15.09Z" fill="#727272"></path><path fill-rule="evenodd" clip-rule="evenodd" d="M144.757 38.658h-4.436v-15.09h4.337v1.637c1.372-1.756 3.143-2.19 5.112-2.012 2.467.217 4.138 1.854 4.416 4.3.06.454.08.927.08 1.38v9.785h-4.476v-8.739c0-.295-.02-.591-.04-.868-.079-.868-.398-1.637-1.293-1.952-.935-.336-1.85-.218-2.646.433-.775.652-1.074 1.52-1.094 2.526v8.6h.04Z" fill="#727272"></path><path d="M161.984 23.568h-4.416v15.09h4.416v-15.09Z" fill="#727272"></path><path fill-rule="evenodd" clip-rule="evenodd" d="M121.781 43.668a2.993 2.993 0 0 0-1.074-.67 3.519 3.519 0 0 0-1.253-.237c-.975 0-1.75.315-2.307.927-.558.631-.836 1.38-.836 2.308 0 .868.278 1.578.816 2.19.537.591 1.333.887 2.347.887.816 0 1.532-.256 2.148-.789V46.43h-2.466v-.868h3.362v3.097c-.836.887-1.85 1.341-3.064 1.341a5.304 5.304 0 0 1-1.83-.315c-.537-.218-.975-.513-1.293-.888a3.837 3.837 0 0 1-.736-1.262 4.28 4.28 0 0 1-.259-1.52c0-1.203.358-2.189 1.114-2.978.736-.789 1.751-1.164 3.004-1.164 1.134 0 2.109.395 2.905 1.184l-.578.611Zm8.872 2.032c.299-.296.438-.69.438-1.164a1.65 1.65 0 0 0-.438-1.144c-.298-.335-.715-.513-1.253-.513h-2.605v3.275h2.565c.557 0 .995-.158 1.293-.454Zm-1.949 1.322h-1.909v2.82h-.975v-7.83h3.58c.836 0 1.492.236 1.97.73.477.492.696 1.084.696 1.774 0 .651-.179 1.184-.557 1.657-.378.454-.955.71-1.711.77l2.606 2.9h-1.233l-2.467-2.822Zm12.751-2.604c-.219-.474-.557-.848-1.015-1.164-.477-.316-1.034-.473-1.69-.473-.955 0-1.711.295-2.248.907-.537.611-.796 1.361-.796 2.268 0 .868.259 1.598.796 2.21.517.611 1.273.927 2.268.927.974 0 1.71-.316 2.228-.927.517-.612.775-1.361.775-2.21a4.226 4.226 0 0 0-.318-1.538Zm.239-1.342c.696.79 1.054 1.756 1.034 2.86 0 .514-.079 1.027-.259 1.5a4.66 4.66 0 0 1-.736 1.302c-.318.374-.735.69-1.253.927-.517.236-1.114.335-1.77.335a4.568 4.568 0 0 1-1.771-.335c-.517-.237-.934-.533-1.272-.927a4.303 4.303 0 0 1-.737-1.282 4.172 4.172 0 0 1-.258-1.5c0-1.164.358-2.13 1.094-2.92.736-.768 1.711-1.163 2.924-1.163 1.313 0 2.308.415 3.004 1.203Zm10.483-1.065v4.695c0 1.045-.298 1.834-.915 2.406-.617.573-1.372.849-2.288.849-.895 0-1.671-.276-2.287-.849-.637-.572-.935-1.38-.935-2.426v-4.675h.975v4.695c0 .75.219 1.322.656 1.755.438.415.975.632 1.611.632.637 0 1.174-.217 1.592-.632.417-.433.636-1.005.636-1.755V42.01h.955Zm8.056 4.142c.279-.177.478-.394.597-.65a1.96 1.96 0 0 0 .179-.849c0-.296-.059-.572-.179-.848a1.549 1.549 0 0 0-.597-.65c-.278-.178-.596-.257-.974-.257h-2.606v3.491h2.625c.359.02.677-.079.955-.236Zm-3.58 3.69h-.975V42.01h3.581c.497 0 .935.099 1.333.296.397.197.696.454.895.77.199.315.358.65.437 1.025.1.369.1.756 0 1.125-.099.374-.238.73-.437 1.025-.199.316-.498.572-.895.77a2.94 2.94 0 0 1-1.333.295h-2.606v2.526Z" fill="#727272"></path></svg>
